<?xml version="1.0" standalone="no"?>
<!DOCTYPE svg PUBLIC "-//W3C//DTD SVG 20010904//EN"
 "http://www.w3.org/TR/2001/REC-SVG-20010904/DTD/svg10.dtd">
<svg version="1.0" xmlns="http://www.w3.org/2000/svg"
 width="1000.000000pt" height="1000.000000pt" viewBox="0 0 1000.000000 1000.000000"
 preserveAspectRatio="xMidYMid meet">
<metadata>
Created by potrace 1.14, written by Peter Selinger 2001-2017
</metadata>
<g transform="translate(0.000000,1000.000000) scale(0.100000,-0.100000)"
fill="#000000" stroke="none">
<path d="M0 8026 l0 -1975 53 -15 c59 -17 224 -115 385 -228 107 -75 109 -77
126 -135 47 -154 57 -186 96 -293 66 -182 77 -212 95 -255 31 -75 178 -361
193 -375 9 -9 -7 133 -34 305 -24 154 -27 204 -31 540 -3 227 -1 389 5 420 16
80 129 505 163 615 12 36 31 101 44 145 52 180 78 266 116 390 51 164 52 165
55 140 1 -11 8 -101 14 -200 16 -245 56 -565 71 -565 7 0 29 137 55 340 53
419 203 872 380 1155 24 38 156 228 164 235 3 3 50 59 105 125 104 125 153
179 320 353 132 137 447 448 510 503 92 81 268 223 365 296 52 39 116 88 142
107 49 38 58 42 58 26 0 -8 -45 -90 -100 -180 -5 -8 -41 -77 -80 -153 -39 -75
-84 -160 -100 -188 -17 -27 -30 -53 -30 -56 0 -4 -32 -72 -71 -152 -40 -80
-91 -193 -114 -251 -24 -58 -53 -129 -66 -157 -12 -29 -20 -56 -16 -59 4 -4
35 20 69 52 62 59 145 124 223 176 49 33 298 172 425 238 47 25 259 120 267
120 3 0 65 22 137 49 181 69 548 189 826 271 256 75 940 309 1105 378 230 95
210 87 385 171 l125 60 -3217 1 -3218 0 0 -1974z m3920 1660 c0 -9 -70 -80
-70 -71 0 6 14 25 31 43 28 30 39 38 39 28z m-190 -11 c0 -8 -54 -54 -58 -50
-2 2 9 15 24 29 30 27 34 29 34 21z m-90 -95 c-21 -30 -40 -46 -40 -35 0 11
44 64 53 64 5 1 -1 -12 -13 -29z m200 5 c-7 -9 -15 -13 -19 -10 -3 3 1 10 9
15 21 14 24 12 10 -5z m-250 -59 c0 -2 -8 -10 -17 -17 -16 -13 -17 -12 -4 4
13 16 21 21 21 13z m188 -16 c-7 -11 -16 -20 -20 -20 -5 0 -3 9 4 20 7 11 16
20 20 20 5 0 3 -9 -4 -20z m-228 -30 c0 -5 -5 -10 -11 -10 -5 0 -7 5 -4 10 3
6 8 10 11 10 2 0 4 -4 4 -10z m180 -29 c-6 -12 -15 -21 -21 -21 -5 0 -2 11 7
25 20 30 31 26 14 -4z m-53 -63 c-3 -8 -6 -5 -6 6 -1 11 2 17 5 13 3 -3 4 -12
1 -19z m-1977 -3 c16 -19 7 -74 -20 -126 -11 -22 -20 -50 -20 -62 0 -12 -11
-39 -25 -59 -14 -20 -25 -39 -25 -42 0 -6 -48 -78 -57 -86 -3 -3 -4 2 -1 10
18 51 20 62 9 56 -6 -4 -11 -16 -11 -27 0 -10 -5 -19 -11 -19 -6 0 -9 -7 -5
-15 4 -13 -35 -65 -49 -65 -3 0 -5 15 -6 33 0 27 -2 29 -9 12 -10 -23 -13 -14
-10 35 1 19 7 40 14 45 8 6 11 24 8 48 -4 35 10 52 21 25 3 -7 3 1 1 17 -6 36
27 101 49 99 9 -1 18 4 21 12 3 9 0 11 -11 7 -13 -5 -14 -3 -4 15 14 26 31 29
31 5 0 -15 2 -16 10 -3 6 10 6 16 0 18 -18 6 -10 28 10 29 16 1 19 -3 14 -21
-3 -14 2 -31 15 -47 11 -13 20 -18 21 -11 0 6 -4 12 -10 12 -5 0 -10 15 -10
33 0 18 -5 38 -12 45 -9 9 -4 12 26 12 21 0 35 4 31 10 -3 5 -12 7 -20 3 -8
-3 -15 0 -15 6 0 16 36 13 50 -4z m450 5 c0 -5 -5 -10 -11 -10 -5 0 -7 5 -4
10 3 6 8 10 11 10 2 0 4 -4 4 -10z m-26 -45 c-19 -30 -26 -28 -17 3 3 12 12
22 19 22 12 0 11 -5 -2 -25z m-46 -55 c-7 -11 -17 -20 -22 -20 -5 0 -1 9 9 20
10 11 20 20 22 20 2 0 -2 -9 -9 -20z m-28 -35 c0 -3 -13 -19 -30 -37 -35 -36
-40 -29 -7 12 20 26 37 38 37 25z m-837 -55 c-5 -20 -21 -36 -28 -28 -5 4 23
48 30 48 2 0 1 -9 -2 -20z m777 -24 c0 -3 -4 -8 -10 -11 -5 -3 -10 -1 -10 4 0
6 5 11 10 11 6 0 10 -2 10 -4z m-960 -54 c0 -5 -7 -17 -16 -28 -8 -10 -14 -14
-11 -9 2 6 7 18 10 28 7 17 17 23 17 9z m121 -55 c-8 -8 -11 -7 -11 4 0 20 13
34 18 19 3 -7 -1 -17 -7 -23z m-151 -20 c0 -19 -27 -53 -35 -45 -4 4 1 18 12
32 21 29 23 31 23 13z m140 0 c0 -9 -49 -100 -49 -92 -1 16 33 95 42 95 4 0 7
-1 7 -3z m-183 -79 c-3 -8 -6 -5 -6 6 -1 11 2 17 5 13 3 -3 4 -12 1 -19z m-22
-58 c-9 -16 -12 -30 -8 -30 5 0 4 -4 -2 -8 -5 -4 -20 -27 -32 -52 -13 -25 -23
-37 -23 -28 0 10 8 32 19 51 10 18 26 48 35 65 9 18 19 32 22 32 2 0 -2 -13
-11 -30z m155 16 c0 -3 -4 -8 -10 -11 -5 -3 -10 -1 -10 4 0 6 5 11 10 11 6 0
10 -2 10 -4z"/>
<path d="M1660 9304 c0 -8 5 -12 10 -9 6 4 8 11 5 16 -9 14 -15 11 -15 -7z"/>
<path d="M1591 9264 c0 -11 3 -14 6 -6 3 7 2 16 -1 19 -3 4 -6 -2 -5 -13z"/>
<path d="M1600 9216 c0 -8 4 -17 9 -20 5 -4 7 3 4 14 -6 23 -13 26 -13 6z"/>
<path d="M1630 9211 c0 -6 4 -13 10 -16 6 -3 7 1 4 9 -7 18 -14 21 -14 7z"/>
<path d="M1620 9160 c-6 -12 -9 -24 -7 -27 3 -2 11 5 17 17 6 12 9 24 7 27 -3
2 -11 -5 -17 -17z"/>
<path d="M1593 9113 c-15 -5 -17 -23 -4 -23 5 0 11 7 15 15 3 8 4 15 3 14 -1
0 -8 -3 -14 -6z"/>
<path d="M1513 9087 c10 -27 -2 -50 -19 -36 -17 14 -18 3 -2 -15 10 -11 15
-11 25 0 16 16 17 50 1 60 -8 5 -9 2 -5 -9z"/>
<path d="M6579 9949 c-62 -72 -58 -67 -129 -144 -99 -109 -227 -240 -346 -355
-221 -214 -519 -442 -679 -519 -27 -13 -63 -33 -79 -44 -16 -11 -97 -55 -180
-97 -83 -42 -207 -106 -276 -141 -210 -108 -541 -265 -607 -289 -125 -45 -49
-48 202 -9 72 11 191 29 265 39 74 11 167 24 205 30 82 12 384 55 535 75 58 8
132 18 165 24 33 5 76 12 95 15 236 36 385 61 480 82 63 14 163 33 221 44 357
63 764 171 1074 285 55 20 116 41 135 47 19 6 69 28 110 51 74 40 280 165 290
176 3 4 32 26 65 50 33 25 62 48 63 53 2 4 10 8 17 8 7 0 61 43 119 96 59 52
110 93 114 90 8 -4 -26 -223 -47 -306 -5 -19 -14 -62 -21 -95 -6 -33 -13 -67
-15 -75 -2 -8 -13 -62 -25 -120 -69 -341 -120 -549 -175 -715 -13 -38 -28 -86
-33 -105 -18 -63 -91 -260 -133 -359 -58 -136 -62 -145 -79 -158 -13 -11 -13
-12 2 -13 10 0 50 30 89 68 82 77 354 385 425 482 26 36 70 97 99 135 70 96
178 260 209 319 14 27 30 54 35 60 13 16 121 205 121 212 0 19 54 114 61 107
5 -5 13 -56 19 -113 6 -58 16 -126 21 -152 6 -26 14 -100 19 -165 5 -65 12
-127 15 -138 6 -25 23 -214 35 -410 5 -82 12 -171 14 -196 3 -26 10 -163 15
-305 14 -341 19 -406 31 -418 13 -13 59 90 95 209 14 50 33 112 41 139 8 26
14 55 14 62 0 8 5 14 11 14 8 0 10 -17 5 -57 -3 -32 -10 -152 -16 -268 -14
-303 -44 -575 -81 -750 -28 -132 -115 -403 -171 -535 -21 -49 -33 -78 -53
-125 -6 -16 -18 -48 -25 -70 -30 -94 -266 -596 -300 -640 -4 -5 -21 -35 -38
-65 -66 -123 -115 -204 -192 -320 -50 -74 -89 -151 -120 -235 -33 -88 -73
-374 -105 -750 -21 -245 -34 -366 -45 -400 -5 -16 -12 -52 -15 -80 -21 -157
-172 -510 -286 -668 -67 -92 -250 -270 -359 -349 -47 -34 -107 -80 -134 -102
-26 -22 -65 -48 -85 -59 -20 -11 -52 -32 -71 -47 -19 -15 -116 -76 -215 -135
-99 -60 -210 -128 -247 -152 -101 -64 -319 -178 -868 -453 -594 -298 -620
-309 -775 -310 -92 0 -379 47 -541 90 -104 28 -300 94 -371 126 -17 8 -37 14
-45 14 -8 0 -18 4 -23 8 -6 5 -30 17 -55 26 -98 38 -468 205 -500 226 -8 5
-46 26 -85 46 -38 20 -106 57 -149 81 -44 25 -111 62 -150 83 -39 20 -91 48
-116 62 -129 73 -174 100 -200 118 -15 11 -31 20 -34 20 -8 0 -284 187 -411
278 -77 55 -199 153 -215 172 -3 4 -14 10 -25 14 -27 10 44 -64 113 -118 30
-22 72 -56 95 -74 43 -33 189 -139 218 -157 9 -5 68 -45 133 -88 64 -42 118
-77 120 -77 2 0 43 -24 92 -54 49 -29 121 -70 159 -90 39 -21 86 -47 105 -58
19 -12 62 -35 95 -53 33 -18 78 -42 99 -55 80 -45 301 -154 374 -185 104 -44
109 -54 47 -107 -93 -79 -436 -423 -473 -473 -20 -27 -55 -70 -77 -93 -22 -24
-44 -51 -49 -60 -5 -10 -28 -39 -50 -67 -23 -27 -49 -61 -58 -75 -9 -14 -31
-41 -48 -60 -80 -88 -126 -180 -146 -292 -6 -34 -4 -38 15 -38 18 0 21 6 21
43 0 58 34 143 79 197 20 25 59 76 86 113 73 100 195 250 216 265 15 10 21 8
40 -20 13 -18 26 -35 29 -38 7 -6 98 -143 123 -185 21 -36 137 -272 163 -332
10 -24 24 -43 32 -43 9 0 12 6 7 18 -4 9 -13 36 -21 60 -18 51 -121 253 -159
310 -15 23 -35 54 -44 70 -25 46 -93 145 -113 166 -10 11 -18 27 -18 35 0 17
62 84 259 285 146 149 258 246 284 246 20 0 134 -41 169 -60 9 -5 60 -25 115
-45 194 -70 218 -93 248 -230 8 -38 22 -104 31 -145 37 -168 30 -361 -22 -677
-4 -25 -1 -33 10 -33 21 0 33 50 47 194 6 66 15 125 19 129 14 15 21 -96 14
-210 l-7 -113 1094 0 c1012 0 1091 2 1059 17 -86 39 -272 134 -280 143 -3 3
-165 86 -360 184 -195 98 -359 182 -365 186 -11 9 -109 60 -577 302 -32 16
-58 34 -58 39 0 5 27 9 59 9 124 0 221 38 621 244 36 18 119 59 185 90 66 31
127 61 135 66 8 4 92 47 185 95 236 120 315 162 350 184 27 17 204 122 247
146 69 39 391 239 401 249 6 6 47 36 90 66 67 47 123 89 173 129 6 5 39 30 75
57 83 64 299 280 299 300 0 4 9 17 19 28 10 12 31 44 46 73 14 28 33 57 41 64
8 6 14 16 14 21 0 5 9 28 20 50 11 23 20 47 20 54 0 7 4 14 9 16 4 1 27 64 51
138 23 74 47 146 53 160 6 14 12 41 14 60 2 19 8 46 13 60 10 29 17 75 25 175
4 39 12 128 20 198 l13 129 56 55 c31 31 56 60 56 65 0 5 16 24 35 44 19 19
35 39 35 44 0 18 57 99 65 92 5 -4 5 1 2 11 -4 9 -3 17 2 17 5 0 12 11 15 24
3 13 16 27 28 30 14 5 18 9 10 13 -9 3 -7 12 8 30 11 14 20 34 20 44 0 10 5
21 10 24 6 3 10 15 10 26 0 10 6 18 13 16 6 -1 13 5 13 13 1 8 3 17 4 20 1 3
4 14 5 25 2 11 14 55 29 97 14 42 26 85 26 96 0 11 5 22 12 24 6 2 12 13 14
24 6 55 27 141 37 153 9 12 9 13 0 7 -16 -9 -17 8 -2 35 10 19 13 229 5 319
-4 37 8 70 30 83 8 4 14 21 14 37 0 32 29 100 42 100 4 0 8 6 8 14 0 8 7 27
15 43 8 15 28 57 45 93 33 71 75 131 65 95 -3 -11 2 -5 10 13 8 17 22 32 30
32 8 0 15 5 15 10 0 6 12 22 27 35 20 16 30 20 36 12 6 -9 10 -9 14 1 2 6 9
12 14 12 5 0 2 -12 -8 -27 -10 -15 -16 -35 -15 -45 2 -10 -1 -18 -6 -18 -8 0
-10 -5 -14 -47 -1 -10 -14 -30 -31 -45 l-29 -28 -3 -142 c-4 -173 -2 -158 -19
-158 -15 0 -26 -30 -26 -77 0 -17 -4 -33 -9 -35 -5 -1 -11 -38 -13 -80 -2 -58
-7 -78 -17 -78 -11 0 -12 -15 -6 -77 4 -43 11 -79 16 -81 11 -4 -16 -58 -33
-65 -10 -4 -10 -8 1 -15 11 -8 13 -26 8 -83 -3 -40 -10 -75 -15 -78 -5 -3 -13
-22 -17 -41 -4 -19 -14 -39 -21 -45 -12 -9 -24 -183 -24 -353 0 -36 -3 -42
-21 -42 -21 0 -21 -3 -16 -57 8 -66 -12 -263 -26 -263 -4 0 -7 -19 -6 -42 3
-48 -7 -88 -22 -88 -5 0 -9 -7 -9 -15 0 -8 -7 -15 -16 -15 -13 0 -14 -2 -1
-14 10 -11 14 -37 12 -96 -2 -70 -5 -83 -23 -96 -25 -18 -29 -34 -7 -34 11 0
15 -11 15 -39 0 -22 5 -41 13 -44 26 -9 -5 -19 -65 -22 -35 -1 -69 -3 -75 -3
-24 -3 -13 -30 17 -44 26 -11 30 -19 31 -53 l2 -40 6 47 c8 53 12 61 32 53 10
-4 13 -17 11 -45 -3 -27 1 -44 12 -55 17 -18 22 -75 6 -75 -5 0 -10 -18 -10
-40 0 -22 -4 -40 -10 -40 -6 0 -10 -33 -10 -80 0 -73 -2 -80 -20 -80 -17 0
-20 -7 -20 -40 0 -38 -2 -40 -30 -40 -16 0 -30 -4 -30 -10 0 -5 18 -10 41 -10
l40 0 -7 -69 c-6 -67 -6 -69 17 -73 20 -3 21 -5 8 -18 -8 -8 -19 -26 -26 -40
-16 -34 -21 -122 -7 -127 13 -4 24 28 24 75 0 25 4 32 20 32 17 0 20 -7 20
-40 0 -22 -4 -40 -10 -40 -6 0 -10 -33 -10 -80 0 -47 4 -80 10 -80 6 0 10 -45
10 -115 0 -102 -2 -117 -20 -135 -11 -11 -21 -20 -22 -20 -2 0 -2 62 -2 137 1
76 0 119 -3 96 -2 -24 -8 -43 -14 -43 -5 0 -9 -18 -9 -40 0 -38 -2 -40 -30
-40 -28 0 -30 -2 -30 -40 0 -37 2 -40 28 -40 l29 0 6 -122 c4 -66 8 -158 9
-202 0 -45 3 -66 5 -48 4 30 7 32 44 32 28 0 39 -4 39 -15 0 -21 77 -21 82 0
2 12 9 10 33 -10 20 -16 26 -27 19 -32 -6 -5 -14 -18 -18 -29 -7 -24 -32 -34
-83 -34 -39 0 -43 -20 -15 -69 21 -38 25 -38 42 -3 l14 27 4 -27 c3 -25 7 -28
43 -28 28 0 39 4 39 15 0 19 16 19 24 0 3 -9 0 -15 -9 -15 -11 0 -15 -11 -15
-40 0 -22 -4 -40 -10 -40 -15 0 -12 -67 3 -74 6 -3 3 -4 -8 -3 -15 2 -19 -3
-17 -21 2 -12 -2 -22 -7 -22 -6 0 -11 -9 -11 -20 0 -14 -7 -20 -24 -20 -21 0
-24 5 -28 46 -3 42 10 74 20 46 2 -7 12 -12 23 -12 16 0 19 7 19 40 0 33 -3
40 -20 40 -11 0 -20 -6 -20 -14 0 -18 -89 -14 -101 5 -10 16 -20 7 -37 -34
-11 -25 -10 -29 13 -39 19 -9 25 -19 25 -45 0 -31 -2 -33 -35 -33 -34 0 -35 1
-35 40 0 39 -1 40 -34 40 -19 0 -36 5 -38 12 -3 9 -6 9 -12 0 -4 -7 -2 -12 3
-12 6 0 11 -18 11 -40 0 -29 4 -40 15 -40 11 0 15 -11 15 -40 0 -29 -4 -40
-15 -40 -11 0 -15 -11 -15 -40 0 -38 2 -40 30 -40 l30 0 0 -80 0 -80 -30 0
c-28 0 -30 -2 -30 -40 0 -38 2 -40 30 -40 17 0 30 -4 30 -9 0 -5 -13 -19 -30
-31 -16 -12 -30 -30 -30 -40 0 -10 14 -28 30 -40 17 -12 30 -26 30 -31 0 -5
-13 -9 -30 -9 -16 0 -30 -4 -30 -10 0 -5 18 -10 40 -10 29 0 40 -4 40 -15 0
-11 12 -15 44 -15 30 0 46 -5 50 -15 3 -8 1 -15 -4 -15 -6 0 -10 -4 -10 -10 0
-5 16 -10 36 -10 25 0 35 4 31 13 -2 6 -1 21 4 32 7 19 8 19 8 -2 1 -17 7 -23
25 -23 21 0 24 -5 28 -45 1 -24 -1 -40 -5 -36 -5 5 -17 6 -28 4 -15 -4 -19
-14 -19 -44 0 -39 0 -39 40 -39 46 0 54 -19 16 -43 -21 -14 -24 -26 -30 -106
-4 -50 -12 -91 -17 -91 -5 0 -9 -7 -9 -16 0 -9 -5 -14 -12 -12 -18 6 -21 28
-4 28 13 0 16 12 16 65 l0 65 -99 0 -100 0 -14 -29 c-13 -26 -13 -31 1 -45 15
-15 14 -16 -8 -18 -14 0 -33 0 -44 1 -10 0 -25 -4 -33 -10 -8 -7 -46 -11 -98
-10 -55 2 -85 -2 -85 -8 0 -7 -30 -11 -80 -11 -64 0 -80 -3 -80 -15 0 -11 -11
-15 -40 -15 -36 0 -40 -2 -40 -25 l0 -25 960 0 960 0 0 4193 c0 2710 -4 4187
-10 4177 -6 -9 -10 -10 -10 -3 0 6 5 15 10 18 6 3 10 26 10 51 0 30 -4 43 -11
38 -8 -4 -8 -1 -1 13 14 26 16 473 2 473 -5 0 -10 18 -10 40 0 22 5 40 10 40
13 0 13 47 0 55 -6 4 -8 15 -5 24 3 10 8 59 10 110 4 75 2 96 -12 117 -16 25
-16 27 0 36 11 6 17 22 17 48 0 32 -4 39 -22 43 l-23 4 23 8 c22 7 22 8 22
220 0 161 -3 215 -12 218 -10 4 -10 6 0 6 7 1 12 15 12 36 l0 35 -1688 0
-1688 0 -45 -51z m3214 14 c-7 -2 -19 -2 -25 0 -7 3 -2 5 12 5 14 0 19 -2 13
-5z m-3184 -440 c-32 -37 -72 -73 -76 -69 -5 5 80 93 91 95 5 0 -1 -11 -15
-26z m3061 -20 c0 -5 -20 -8 -45 -8 -25 0 -45 3 -45 8 0 4 20 7 45 7 25 0 45
-3 45 -7z m24 -7 c-4 -10 3 -16 23 -19 23 -3 22 -4 -9 -6 -21 0 -38 1 -38 3 0
13 13 36 21 36 4 0 6 -6 3 -14z m-49 -16 c3 -5 -3 -10 -15 -10 -12 0 -18 5
-15 10 3 6 10 10 15 10 5 0 12 -4 15 -10z m28 -20 c38 0 67 -3 63 -7 -4 -4
-22 -6 -41 -5 -23 3 -36 -2 -43 -14 -6 -10 -14 -14 -22 -9 -9 6 -9 10 1 17 10
7 8 8 -8 5 -13 -3 -23 -4 -23 -2 0 2 -2 9 -3 17 -2 7 -2 10 0 6 3 -5 37 -8 76
-8z m-3179 -48 c-11 -10 -33 -27 -49 -37 -23 -13 -20 -8 14 24 24 23 46 39 49
36 3 -3 -3 -13 -14 -23z m3180 3 c-5 -19 -2 -25 11 -25 12 0 15 -7 11 -30 -2
-16 0 -30 5 -30 6 0 8 -4 5 -8 -3 -5 4 -18 14 -30 21 -22 27 -52 10 -52 -5 0
-10 9 -10 21 0 16 -4 19 -20 14 -14 -5 -20 -2 -20 9 0 9 -4 16 -10 16 -5 0
-10 6 -10 13 0 7 -9 29 -20 50 -11 20 -20 40 -20 44 1 14 40 -42 40 -57 0 -13
1 -13 10 0 6 10 4 22 -6 38 -12 18 -13 26 -3 38 17 20 20 17 13 -11z m-3280
-79 c-10 -8 -21 -12 -23 -10 -3 2 4 11 15 18 10 8 21 12 23 10 3 -2 -4 -11
-15 -18z m-38 -35 c-3 -5 -15 -11 -26 -14 -17 -4 -19 -3 -9 9 12 15 44 20 35
5z m-81 -51 c-3 -5 -16 -15 -28 -21 -22 -12 -22 -12 -3 10 19 21 43 30 31 11z
m3435 -31 c0 -13 4 -18 12 -13 7 4 8 3 4 -4 -4 -7 -1 -12 8 -12 19 0 33 -47
18 -62 -13 -13 -32 -2 -32 20 0 13 2 13 15 -4 11 -14 14 -15 15 -4 0 8 -11 25
-24 37 -25 24 -40 63 -25 63 5 0 9 -9 9 -21z m197 -521 c-3 -8 -6 -5 -6 6 -1
11 2 17 5 13 3 -3 4 -12 1 -19z m54 -221 c-10 -9 -11 -8 -5 6 3 10 9 15 12 12
3 -3 0 -11 -7 -18z m29 -31 c0 -3 -4 -8 -10 -11 -5 -3 -10 -1 -10 4 0 6 5 11
10 11 6 0 10 -2 10 -4z m-533 -113 c-3 -10 -5 -2 -5 17 0 19 2 27 5 18 2 -10
2 -26 0 -35z m33 -123 c-1 -40 -17 -3 -24 55 l-6 50 15 -40 c8 -22 15 -51 15
-65z m67 18 c-3 -7 -5 -2 -5 12 0 14 2 19 5 13 2 -7 2 -19 0 -25z m18 -28 c3
-5 1 -10 -4 -10 -6 0 -11 5 -11 10 0 6 2 10 4 10 3 0 8 -4 11 -10z m19 -62 c3
-13 6 -30 6 -37 0 -23 -16 0 -24 32 -8 32 9 37 18 5z m186 -43 c0 -8 -6 -15
-12 -15 -7 -1 1 -7 18 -14 34 -15 46 -36 40 -69 -1 -12 -1 -16 1 -9 8 23 20
12 16 -15 -3 -25 -2 -26 7 -8 8 16 9 13 4 -14 -4 -20 -2 -31 3 -28 6 4 15 -5
21 -18 7 -15 8 -26 2 -30 -6 -4 -14 4 -19 17 -7 17 -10 19 -10 5 -1 -9 7 -24
18 -33 14 -12 18 -27 15 -63 -3 -36 -2 -40 5 -21 8 21 9 17 10 -25 1 -66 -9
-82 -34 -55 -18 20 -21 34 -24 95 -1 17 -3 17 -11 5 -8 -12 -10 -9 -10 13 0
15 -4 27 -10 27 -5 0 -10 7 -10 15 0 9 6 12 15 9 17 -7 19 4 5 26 -8 12 -12
13 -19 2 -6 -11 -10 -9 -14 7 -3 12 -1 21 4 21 5 0 9 5 9 10 0 6 -5 9 -12 8
-7 -2 -15 15 -19 42 -7 50 -2 67 14 51 6 -6 16 -11 22 -11 5 0 -1 9 -15 20
-18 13 -27 15 -32 7 -4 -7 -8 1 -8 19 0 17 3 34 7 37 11 12 23 8 23 -8z m-160
-71 c0 -8 -4 -12 -10 -9 -5 3 -10 10 -10 16 0 5 5 9 10 9 6 0 10 -7 10 -16z
m19 -81 c1 -7 -3 -13 -9 -13 -5 0 -10 17 -9 38 1 33 2 34 9 12 4 -14 8 -31 9
-37z m4 -38 c4 -8 2 -17 -3 -20 -6 -4 -10 3 -10 14 0 25 6 27 13 6z m217
-2136 c0 -5 -4 -9 -10 -9 -5 0 -10 7 -10 16 0 8 5 12 10 9 6 -3 10 -10 10 -16z
m-63 -711 c-2 -13 -4 -3 -4 22 0 25 2 35 4 23 2 -13 2 -33 0 -45z m40 0 c-2
-13 -4 -3 -4 22 0 25 2 35 4 23 2 -13 2 -33 0 -45z m-1127 -85 c0 -107 -21
-229 -70 -418 -39 -151 -110 -342 -146 -394 -9 -13 -30 -49 -47 -80 -64 -121
-190 -291 -214 -291 -7 0 -13 2 -13 4 0 3 9 83 20 178 39 330 68 451 137 573
41 72 60 103 138 225 12 19 53 87 90 150 94 160 105 165 105 53z m30 -1462 c0
-6 -4 -13 -10 -16 -5 -3 -10 1 -10 9 0 9 5 16 10 16 6 0 10 -4 10 -9z m307
-1853 c-3 -8 -6 -5 -6 6 -1 11 2 17 5 13 3 -3 4 -12 1 -19z m-277 -658 c0 -29
4 -40 15 -40 10 0 15 10 15 30 0 28 2 30 40 30 22 0 40 5 40 10 0 6 9 10 20
10 19 0 20 -7 20 -120 0 -82 -4 -120 -11 -120 -8 0 -10 -17 -7 -50 4 -35 1
-53 -8 -58 -7 -4 -13 -11 -14 -17 -1 -12 -74 -7 -78 6 -2 5 -39 9 -83 9 -67 0
-79 3 -79 17 0 14 13 16 118 12 64 -3 100 -3 80 -1 -37 3 -38 4 -38 43 0 37
-2 39 -30 39 -30 0 -30 0 -30 59 0 84 11 181 21 181 5 0 9 -18 9 -40z m130
-567 c0 -35 -3 -44 -10 -33 -13 20 -13 80 0 80 6 0 10 -21 10 -47z m34 -258
c4 -10 -1 -15 -14 -15 -13 0 -18 5 -14 15 4 8 10 15 14 15 4 0 10 -7 14 -15z
m-434 -110 c0 -11 -12 -15 -50 -15 -38 0 -50 4 -50 15 0 11 12 15 50 15 38 0
50 -4 50 -15z"/>
<path d="M9842 7836 c7 -8 15 -12 17 -11 5 6 -10 25 -20 25 -5 0 -4 -6 3 -14z"/>
<path d="M9870 7726 c0 -9 5 -16 10 -16 6 0 10 4 10 9 0 6 -4 13 -10 16 -5 3
-10 -1 -10 -9z"/>
<path d="M8810 880 l0 -80 30 0 30 0 0 80 0 80 -30 0 -30 0 0 -80z"/>
<path d="M3217 8063 c-14 -13 -6 -21 31 -26 63 -11 346 -134 432 -189 14 -9
41 -24 60 -35 30 -15 130 -84 300 -205 25 -17 83 -64 130 -103 47 -39 95 -78
108 -87 12 -8 44 -35 70 -59 87 -82 333 -283 526 -430 26 -21 177 -107 231
-134 54 -26 167 -32 236 -11 102 29 349 166 374 206 12 20 -17 9 -63 -22 l-47
-33 -140 1 c-105 1 -162 7 -227 23 -93 22 -272 105 -359 166 -27 19 -50 35
-52 35 -5 0 -205 134 -308 207 -47 33 -90 62 -95 64 -5 2 -52 36 -104 75 -100
74 -238 171 -330 231 -30 20 -64 44 -75 54 -11 10 -54 34 -95 55 -41 20 -86
44 -100 53 -56 38 -285 127 -398 155 -69 17 -95 20 -105 9z"/>
<path d="M3124 8006 c-4 -11 -15 -13 -41 -9 -26 4 -34 3 -29 -5 4 -7 18 -12
31 -12 13 0 27 -4 30 -10 3 -5 17 -10 31 -10 14 0 37 -6 52 -14 46 -23 151
-39 168 -26 8 7 25 9 41 6 26 -7 27 -6 8 7 -29 20 -69 34 -165 57 -47 12 -93
23 -103 26 -10 3 -20 -1 -23 -10z m46 -16 c0 -5 -7 -10 -16 -10 -8 0 -12 5 -9
10 3 6 10 10 16 10 5 0 9 -4 9 -10z"/>
<path d="M2820 7980 c0 -5 3 -10 8 -10 31 0 139 -23 147 -31 7 -7 -32 -8 -116
-3 -78 4 -133 3 -144 -3 -13 -7 11 -12 91 -17 60 -4 142 -12 183 -17 54 -6 84
-6 108 3 25 9 46 9 85 1 29 -6 55 -9 58 -6 9 9 -27 22 -100 38 -41 9 -100 22
-130 29 -77 20 -190 29 -190 16z"/>
<path d="M2610 7860 c109 -11 359 -10 335 0 -11 5 -108 8 -215 8 -145 -1 -176
-3 -120 -8z"/>
<path d="M2485 7809 c-104 -12 -135 -19 -135 -31 0 -6 10 -8 23 -5 12 3 93 11
179 18 86 7 155 16 152 21 -6 10 -123 8 -219 -3z"/>
<path d="M2475 7760 c-16 -4 -64 -13 -105 -19 -176 -28 -201 -34 -189 -45 2
-2 29 0 59 4 99 14 84 -6 -27 -35 -106 -27 -147 -45 -108 -45 22 0 277 61 285
68 3 3 -1 7 -7 9 -26 9 -11 21 35 27 75 11 141 29 136 38 -6 10 -38 9 -79 -2z"/>
<path d="M2040 7545 c-63 -24 -119 -46 -125 -48 -5 -2 -7 -8 -3 -12 4 -4 54 9
110 29 57 20 118 41 137 46 18 4 38 13 44 19 24 24 -52 8 -163 -34z"/>
<path d="M8075 7346 c-191 -77 -282 -131 -505 -300 -69 -53 -160 -116 -203
-141 -96 -57 -290 -129 -329 -121 -54 11 -27 -14 57 -53 124 -58 139 -59 219
-17 140 75 212 129 346 265 74 75 160 158 190 184 63 56 215 148 310 188 60
26 89 49 58 49 -7 0 -71 -24 -143 -54z"/>
<path d="M8277 7366 c-76 -23 -104 -36 -76 -36 21 0 144 36 166 49 30 17 -4
12 -90 -13z"/>
<path d="M8490 7373 c-91 -15 -171 -37 -182 -51 -11 -14 -10 -15 7 -8 11 4 47
14 80 22 117 30 127 32 132 38 4 3 2 5 -3 5 -5 -1 -20 -4 -34 -6z"/>
<path d="M8513 7313 c-18 -2 -33 -9 -33 -15 0 -7 20 -9 61 -4 34 3 89 6 123 6
43 0 57 3 46 10 -15 9 -131 11 -197 3z"/>
<path d="M8650 7251 c8 -6 32 -11 53 -11 21 0 47 -5 57 -10 11 -6 21 -6 24 -1
8 13 -18 21 -88 27 -45 4 -57 3 -46 -5z"/>
<path d="M3220 7165 c-172 -36 -388 -124 -488 -198 -78 -57 -212 -183 -269
-252 -63 -76 -133 -180 -133 -197 0 -7 -8 -27 -19 -44 -10 -17 -22 -41 -26
-55 -4 -13 -13 -37 -20 -54 -17 -42 -52 -167 -66 -243 -23 -121 -3 -303 50
-456 12 -33 21 -63 21 -68 0 -17 50 -116 65 -128 20 -17 19 -4 -6 66 -60 175
-62 360 -4 594 32 130 55 193 111 301 61 117 112 185 218 287 75 72 211 172
235 172 5 0 14 6 20 14 7 8 22 17 35 20 13 3 57 22 98 41 222 104 622 133 888
65 170 -43 319 -100 431 -166 179 -104 396 -320 522 -517 42 -65 53 1 15 83
-22 46 -87 161 -97 170 -4 3 -15 22 -26 43 -50 96 -286 299 -458 394 -80 44
-242 104 -352 130 -42 10 -147 16 -345 19 -273 4 -290 3 -400 -21z"/>
<path d="M8740 7183 c0 -6 24 -13 53 -17 75 -9 93 -8 81 4 -14 14 -134 25
-134 13z"/>
<path d="M8776 7131 c-5 -7 4 -11 27 -11 19 0 56 -3 83 -6 37 -5 46 -4 38 5
-15 16 -139 27 -148 12z"/>
<path d="M5804 6974 c-49 -47 -131 -114 -182 -149 -52 -35 -89 -66 -84 -69 13
-8 70 25 147 85 96 74 236 219 212 219 -2 0 -44 -39 -93 -86z"/>
<path d="M4071 6730 c-9 -5 -8 -10 4 -20 18 -15 19 -39 1 -62 -19 -25 -28 -22
-49 14 l-18 32 -22 -33 c-11 -19 -26 -63 -33 -100 -12 -60 -11 -73 8 -140 19
-64 27 -76 61 -99 37 -25 40 -25 80 -11 35 12 46 23 69 69 37 74 44 141 24
221 -23 86 -87 153 -125 129z m83 -272 c-4 -7 -8 -23 -9 -37 0 -13 -6 -26 -13
-29 -7 -2 -12 -8 -12 -13 0 -6 5 -7 10 -4 6 3 10 2 10 -4 0 -19 -44 -40 -72
-34 -30 6 -36 18 -15 26 6 3 2 6 -9 6 -25 1 -42 47 -25 64 8 8 11 5 12 -8 1
-13 4 -9 9 10 l7 30 11 -25 c6 -14 11 -19 11 -12 1 7 14 12 31 12 20 0 30 5
30 15 0 8 7 15 16 15 9 0 12 -5 8 -12z"/>
<path d="M4075 6390 c-19 -8 -19 -9 2 -9 12 -1 25 4 28 9 7 12 -2 12 -30 0z"/>
<path d="M7465 6536 c-129 -30 -285 -112 -386 -204 -96 -87 -242 -320 -256
-409 -9 -53 9 -38 52 44 49 93 173 233 270 304 93 68 166 100 310 139 140 37
198 37 335 -2 87 -25 129 -45 235 -113 179 -115 284 -286 315 -516 12 -83 0
-290 -21 -364 -36 -132 -98 -297 -156 -413 -64 -130 -75 -177 -27 -117 120
152 228 351 279 515 14 47 30 99 36 116 17 57 22 216 10 324 -24 199 -80 320
-204 437 -79 73 -189 153 -247 177 -25 10 -64 27 -88 38 -80 35 -157 50 -277
54 -79 2 -140 -1 -180 -10z"/>
<path d="M7305 6136 c-15 -12 -16 -15 -3 -10 10 3 20 -2 27 -15 16 -29 14 -48
-9 -71 -20 -20 -50 -17 -50 5 0 20 -21 30 -31 14 -16 -27 -38 -148 -33 -186
10 -73 15 -84 47 -103 65 -40 114 -15 163 80 24 48 28 67 28 147 1 86 -1 94
-25 118 -32 32 -87 42 -114 21z m-2 -260 c27 -18 28 -18 48 0 17 16 22 16 29
4 13 -20 12 -30 -2 -30 -6 0 -9 -3 -6 -6 9 -8 -45 -61 -68 -66 -36 -9 -54 9
-54 52 0 22 -5 40 -10 40 -6 0 -5 6 2 14 16 17 25 15 61 -8z"/>
<path d="M7265 5800 c3 -5 8 -10 11 -10 2 0 4 5 4 10 0 6 -5 10 -11 10 -5 0
-7 -4 -4 -10z"/>
<path d="M9042 5620 c-6 -11 -12 -28 -11 -37 0 -14 2 -13 9 5 5 12 14 22 20
22 5 0 10 7 10 15 0 21 -13 19 -28 -5z"/>
<path d="M9020 5540 c-13 -8 -12 -10 3 -10 9 0 17 5 17 10 0 12 -1 12 -20 0z"/>
<path d="M2 5508 c2 -9 30 -45 63 -80 67 -69 145 -161 145 -170 0 -3 -28 -9
-62 -12 -70 -8 -148 -40 -148 -62 0 -19 7 -18 31 5 24 22 62 31 131 31 80 0
121 -31 230 -180 99 -134 114 -171 88 -220 -20 -37 -42 -184 -36 -237 15 -128
91 -223 198 -245 85 -18 107 -39 120 -119 11 -65 4 -142 -17 -191 -14 -35 13
-17 30 18 26 56 24 177 -4 231 -26 51 -46 65 -130 87 -159 44 -208 179 -148
418 30 121 33 110 -48 223 -136 191 -451 549 -443 503z"/>
<path d="M8911 5464 c0 -11 3 -14 6 -6 3 7 2 16 -1 19 -3 4 -6 -2 -5 -13z"/>
<path d="M2980 4801 c0 -8 37 -31 145 -91 43 -23 140 -56 210 -71 150 -31 522
-7 760 51 44 10 124 29 177 40 54 12 100 26 103 31 8 12 -4 11 -62 -2 -27 -6
-75 -17 -108 -25 -227 -52 -272 -59 -500 -79 -133 -11 -182 -11 -290 0 -170
17 -239 40 -369 123 -52 33 -66 38 -66 23z"/>
<path d="M6750 4452 c0 -20 258 -114 395 -144 95 -20 385 -17 465 5 87 24 179
70 215 107 35 36 16 40 -29 5 -17 -13 -59 -36 -91 -51 -132 -58 -138 -59 -330
-59 -167 1 -187 3 -280 29 -55 16 -111 30 -125 33 -14 3 -45 14 -69 25 -51 23
-140 58 -146 58 -3 0 -5 -3 -5 -8z"/>
<path d="M8820 4416 c0 -9 5 -16 10 -16 6 0 10 4 10 9 0 6 -4 13 -10 16 -5 3
-10 -1 -10 -9z"/>
<path d="M6530 4374 c0 -5 16 -26 35 -47 35 -40 55 -90 55 -142 0 -25 2 -27
14 -15 14 16 36 94 36 129 0 11 -15 31 -32 45 -33 25 -108 45 -108 30z"/>
<path d="M8631 4354 c0 -11 3 -14 6 -6 3 7 2 16 -1 19 -3 4 -6 -2 -5 -13z"/>
<path d="M0 4298 c0 -9 14 -27 30 -40 17 -13 45 -35 63 -49 33 -26 178 -109
192 -109 17 0 -22 33 -65 55 -26 13 -68 40 -93 59 -26 20 -50 36 -54 36 -4 0
-22 14 -40 32 -24 23 -33 27 -33 16z"/>
<path d="M8622 4260 c0 -14 2 -19 5 -12 2 6 2 18 0 25 -3 6 -5 1 -5 -13z"/>
<path d="M8590 4240 c0 -5 5 -10 11 -10 5 0 7 5 4 10 -3 6 -8 10 -11 10 -2 0
-4 -4 -4 -10z"/>
<path d="M8431 3934 c0 -11 3 -14 6 -6 3 7 2 16 -1 19 -3 4 -6 -2 -5 -13z"/>
<path d="M8731 3807 c-7 -65 -11 -121 -7 -124 3 -4 6 12 6 35 0 31 4 42 15 42
17 0 18 29 6 115 -6 47 -7 42 -20 -68z"/>
<path d="M8510 3850 c0 -5 5 -10 11 -10 5 0 7 5 4 10 -3 6 -8 10 -11 10 -2 0
-4 -4 -4 -10z"/>
<path d="M8547 3753 c-11 -10 -8 -73 3 -73 6 0 10 18 10 40 0 41 -2 45 -13 33z"/>
<path d="M8670 3680 c0 -47 4 -80 10 -80 6 0 10 33 10 80 0 47 -4 80 -10 80
-6 0 -10 -33 -10 -80z"/>
<path d="M0 3716 c0 -17 156 -152 274 -235 43 -31 95 -68 115 -83 76 -56 209
-127 256 -138 59 -13 165 -4 215 18 51 23 119 69 172 119 26 23 53 41 60 38 7
-3 24 -22 38 -42 14 -21 48 -64 75 -98 122 -147 147 -187 128 -206 -6 -6 -32
-15 -56 -20 -59 -11 -225 -89 -257 -120 -14 -13 -57 -50 -95 -81 -171 -138
-496 -490 -561 -607 -54 -96 -57 -99 -122 -105 -94 -10 -144 -25 -194 -59
l-48 -32 0 -1032 0 -1033 867 0 868 0 -102 103 c-245 247 -423 500 -607 863
-87 172 -177 443 -232 699 -38 179 -45 463 -14 670 23 159 79 349 128 435 32
56 146 170 205 205 64 37 210 86 221 75 11 -11 -2 -105 -41 -280 -20 -94 -36
-136 -88 -235 -34 -66 -85 -154 -112 -195 -60 -89 -179 -220 -200 -220 -27 0
-11 192 27 325 44 156 53 181 104 285 25 52 44 96 41 98 -12 12 -44 -44 -97
-171 -71 -170 -95 -250 -113 -388 -13 -92 -12 -125 0 -260 8 -85 21 -179 29
-209 68 -263 92 -347 139 -472 96 -256 208 -460 393 -718 14 -19 34 -44 45
-56 10 -11 19 -25 19 -31 0 -6 3 -13 8 -15 4 -1 22 -21 41 -43 109 -129 310
-348 380 -413 89 -83 99 -63 12 25 -136 139 -341 364 -380 419 -13 19 -28 34
-33 34 -4 0 -8 6 -8 14 0 8 -3 16 -8 18 -7 3 -39 44 -140 178 -58 78 -179 297
-226 410 -11 25 -29 68 -41 95 -88 196 -178 516 -197 703 l-12 113 86 83 c81
78 169 186 189 231 5 11 23 43 40 70 53 88 90 177 114 275 33 130 55 258 55
312 0 77 0 77 150 -92 189 -213 328 -356 336 -347 6 6 -76 101 -182 213 -71
73 -194 214 -244 278 -8 10 -22 26 -30 35 -8 9 -49 57 -90 106 -41 50 -77 92
-80 95 -3 3 -28 35 -55 72 -58 80 -77 89 -113 55 -106 -97 -181 -142 -261
-157 -120 -22 -225 15 -392 135 -48 35 -109 79 -134 97 -25 18 -74 56 -108 83
-150 122 -157 126 -157 111z"/>
<path d="M8480 3615 c0 -9 9 -15 25 -15 18 0 23 4 19 15 -4 8 -15 15 -25 15
-10 0 -19 -7 -19 -15z"/>
<path d="M8560 3541 c0 -12 5 -21 10 -21 6 0 10 6 10 14 0 8 -4 18 -10 21 -5
3 -10 -3 -10 -14z"/>
<path d="M8622 3543 c-11 -20 -10 -23 3 -23 8 0 15 -7 15 -15 0 -8 4 -15 9
-15 5 0 11 7 15 15 3 9 0 15 -9 15 -7 0 -15 10 -17 23 l-3 22 -13 -22z"/>
<path d="M8466 3532 c-2 -4 -6 -50 -7 -101 -2 -66 0 -96 9 -99 8 -2 11 26 11
102 0 101 -2 116 -13 98z"/>
<path d="M8401 3298 c-1 -10 6 -18 14 -18 8 0 15 5 15 11 0 5 -4 8 -9 5 -5 -4
-12 0 -14 6 -3 8 -6 6 -6 -4z"/>
<path d="M8436 3264 c-9 -25 -7 -64 4 -64 6 0 10 18 10 40 0 43 -4 50 -14 24z"/>
<path d="M3893 3125 c8 -110 41 -174 133 -262 86 -83 187 -147 289 -185 123
-45 308 -107 370 -123 330 -83 483 -119 655 -154 30 -6 75 -16 100 -21 86 -19
395 -70 427 -70 17 0 34 4 37 9 7 11 -19 17 -149 31 -55 7 -165 25 -245 41
-80 17 -188 39 -240 49 -52 11 -113 24 -135 30 -22 6 -71 18 -110 25 -246 48
-666 179 -802 251 -81 43 -100 56 -179 127 -81 72 -134 188 -134 289 0 22 -5
38 -11 38 -9 0 -10 -22 -6 -75z"/>
<path d="M8640 3068 c0 -28 3 -48 6 -45 11 11 15 97 4 97 -5 0 -10 -23 -10
-52z"/>
<path d="M8400 2890 c0 -5 7 -10 16 -10 8 0 12 5 9 10 -3 6 -10 10 -16 10 -5
0 -9 -4 -9 -10z"/>
<path d="M8400 2790 c0 -5 4 -10 9 -10 6 0 13 5 16 10 3 6 -1 10 -9 10 -9 0
-16 -4 -16 -10z"/>
<path d="M8460 2660 c0 -11 5 -20 10 -20 6 0 10 9 10 20 0 11 -4 20 -10 20 -5
0 -10 -9 -10 -20z"/>
<path d="M8465 2410 c-3 -5 -1 -10 4 -10 6 0 11 5 11 10 0 6 -2 10 -4 10 -3 0
-8 -4 -11 -10z"/>
<path d="M8560 2256 c0 -9 7 -16 16 -16 9 0 14 5 12 12 -6 18 -28 21 -28 4z"/>
<path d="M8474 2049 c-10 -17 13 -36 27 -22 12 12 4 33 -11 33 -5 0 -12 -5
-16 -11z"/>
<path d="M8305 651 c-3 -5 -1 -12 5 -16 5 -3 10 1 10 9 0 18 -6 21 -15 7z"/>
<path d="M8620 360 c0 -22 5 -40 10 -40 6 0 10 18 10 40 0 22 -4 40 -10 40 -5
0 -10 -18 -10 -40z"/>
<path d="M8098 251 c-26 -26 -22 -31 22 -31 46 0 47 3 20 30 -23 23 -20 23
-42 1z"/>
<path d="M7978 166 c-12 -8 -18 -27 -18 -50 0 -29 4 -36 20 -36 17 0 20 7 20
50 0 28 -1 50 -2 50 -2 0 -11 -7 -20 -14z"/>
<path d="M7930 120 c0 -22 5 -40 10 -40 6 0 10 18 10 40 0 22 -4 40 -10 40 -5
0 -10 -18 -10 -40z"/>
<path d="M8511 145 c9 -9 23 -13 32 -9 28 10 19 24 -15 24 -29 0 -31 -2 -17
-15z"/>
<path d="M7896 104 c-9 -22 -8 -24 9 -24 8 0 15 9 15 20 0 24 -15 27 -24 4z"/>
</g>
</svg>
